<svg width="28" height="28" viewBox="0 0 28 28" fill="none" xmlns="http://www.w3.org/2000/svg">
<path d="M23.0571 8.99121L24.0832 10.0972L25.4521 9.46313L24.7173 10.7807L25.7434 11.8867L24.2632 11.5951L23.5285 12.9127L23.3484 11.4148L21.8682 11.1231L23.2371 10.4892L23.0571 8.99121Z" fill="#F0F0F0"/>
<path d="M30 4.00061H0V24.0002H30V4.00061Z" fill="#F0F0F0"/>
<path d="M30 3.99988H7.5V24.0001H30V3.99988Z" fill="#496E2D"/>
<path d="M21.2056 16.5074C19.387 17.8214 16.8475 17.4124 15.5335 15.5938C14.2194 13.7751 14.6285 11.2356 16.4471 9.92166C17.0142 9.51198 17.6513 9.26981 18.2995 9.18555C17.0524 8.99905 15.7344 9.28006 14.6316 10.0768C12.3933 11.6941 11.8899 14.8196 13.5071 17.058C15.1244 19.2962 18.25 19.7997 20.4883 18.1823C21.591 17.3856 22.2717 16.2225 22.4861 14.9799C22.2026 15.5688 21.7727 16.0976 21.2056 16.5074Z" fill="#F0F0F0"/>
<path d="M21.1277 9.13013L22.1522 10.2342L23.5187 9.60122L22.7852 10.9165L23.8096 12.0206L22.3319 11.7295L21.5984 13.045L21.4187 11.5496L19.9409 11.2584L21.3075 10.6255L21.1277 9.13013Z" fill="#F0F0F0"/>
</svg>
