<svg width="16" height="16" viewBox="0 0 16 16" fill="none" xmlns="http://www.w3.org/2000/svg">
<path d="M10.0003 11.3333H13.3337L12.397 10.3967C12.143 10.1427 12.0003 9.79819 12.0003 9.43897V7.33334C12.0003 5.59171 10.8872 4.11006 9.33366 3.56094V3.33333C9.33366 2.59695 8.73671 2 8.00033 2C7.26395 2 6.66699 2.59695 6.66699 3.33333V3.56094C5.1134 4.11006 4.00033 5.59171 4.00033 7.33334V9.43897C4.00033 9.79819 3.85762 10.1427 3.60361 10.3967L2.66699 11.3333H6.00033M10.0003 11.3333V12C10.0003 13.1046 9.1049 14 8.00033 14C6.89576 14 6.00033 13.1046 6.00033 12V11.3333M10.0003 11.3333H6.00033" stroke="#111827" stroke-width="1.5" stroke-linecap="round" stroke-linejoin="round"/>
</svg>
