<svg width="16" height="16" viewBox="0 0 16 16" fill="none" xmlns="http://www.w3.org/2000/svg">
<path d="M11.3333 5.33341H12.6667C13.403 5.33341 14 5.93037 14 6.66675V10.6667C14 11.4031 13.403 12.0001 12.6667 12.0001H11.3333V14.6667L8.66667 12.0001H6C5.63181 12.0001 5.29848 11.8508 5.05719 11.6096M5.05719 11.6096L7.33333 9.33341H10C10.7364 9.33341 11.3333 8.73646 11.3333 8.00008V4.00008C11.3333 3.2637 10.7364 2.66675 10 2.66675H3.33333C2.59695 2.66675 2 3.2637 2 4.00008V8.00008C2 8.73646 2.59695 9.33341 3.33333 9.33341H4.66667V12.0001L5.05719 11.6096Z" stroke="#111827" stroke-width="1.5" stroke-linecap="round" stroke-linejoin="round"/>
</svg>
