<svg width="38" height="38" viewBox="0 0 38 38" fill="none" xmlns="http://www.w3.org/2000/svg">
<g clip-path="url(#clip0_8_408)">
<path d="M37.1505 11.5794L33.3297 10.6333C32.7308 10.485 32.1245 10.8503 31.9761 11.4495C31.8278 12.0486 32.1932 12.6546 32.7924 12.803L33.8987 13.077L31.0688 14.6774C31.2968 15.424 31.4644 16.187 31.5702 16.9633L35.1697 14.927H35.1702L34.8508 16.2165C34.7025 16.8157 35.0679 17.4216 35.6671 17.5701C36.2664 17.7184 36.8722 17.3528 37.0206 16.7539C37.0217 16.7494 37.9507 12.9981 37.9519 12.9936C38.1292 12.4208 37.8066 11.7419 37.1505 11.5794ZM0.559781 21.9866C0.0248099 22.2951 -0.158481 22.9783 0.149239 23.5133C0.458971 24.0504 1.14445 24.2301 1.67592 23.9239L2.65272 23.3613C2.42291 22.6133 2.25324 21.8482 2.14532 21.0732L0.559781 21.9866ZM10.7741 25.9803H6.34537C7.86832 28.2632 10.0984 29.9799 12.6518 30.8889C11.7665 29.4288 11.1619 27.636 10.7741 25.9803ZM21.0586 30.8889C23.6127 29.9799 25.8427 28.2632 27.365 25.9803H22.9362C22.5472 27.646 21.9383 29.438 21.0586 30.8889ZM10.0134 19.1173L4.64955 22.2102C4.75073 22.6187 4.94326 23.2114 5.16068 23.745H10.3509C10.1334 22.2735 10.0186 20.7148 10.0134 19.1173ZM10.3509 14.2534H5.16068C4.4223 16.0658 4.13686 18.0025 4.26658 19.8505L10.1051 16.4849C10.1617 15.7235 10.2436 14.9776 10.3509 14.2534ZM12.6518 7.11027C10.0984 8.01928 7.86832 9.73595 6.34537 12.0181H10.7741C11.1626 10.3593 11.7683 8.56736 12.6518 7.11027ZM22.9362 12.0181H27.365C25.842 9.73595 23.612 8.01928 21.0586 7.11027C21.9401 8.56416 22.5479 10.3556 22.9362 12.0181ZM28.5496 14.2534H23.3594C23.5755 15.7145 23.6902 17.2621 23.6969 18.8476L29.0667 15.8106C29.0667 15.736 28.8138 14.9027 28.5496 14.2534ZM29.4452 18.1651L23.609 21.4658C23.5524 22.2437 23.4689 23.0052 23.3594 23.745H28.5496C29.2847 21.9384 29.5609 20.0528 29.4452 18.1651ZM13.8387 28.2811C14.3667 29.5478 15.5333 31.6798 16.9025 31.6161C17.9083 31.5773 19.0148 30.3368 19.8716 28.2811C20.1645 27.5778 20.42 26.8058 20.6361 25.9803H13.0742C13.2896 26.8058 13.5451 27.5778 13.8387 28.2811ZM19.8716 9.71732C19.0148 7.66163 17.9083 6.42181 16.9025 6.38307C16.8868 6.38232 16.8704 6.38232 16.8548 6.38232C16.8391 6.38232 16.8227 6.38232 16.8071 6.38307C15.802 6.42181 14.6955 7.66163 13.8387 9.71732C13.5451 10.4207 13.2896 11.1926 13.0742 12.0181H20.6361C20.42 11.1926 20.1645 10.4207 19.8716 9.71732ZM12.6093 23.745H21.101C21.212 23.0484 21.2977 22.3271 21.3581 21.588L12.2494 18.6695C12.2382 20.3765 12.3376 22.0366 12.6093 23.745ZM21.101 14.2534H12.6093C12.5013 14.9329 12.4171 15.6363 12.3567 16.3568L21.4609 19.2738C21.4756 17.4688 21.3448 15.7819 21.101 14.2534ZM4.64881 22.2102H4.64955C4.64411 22.1886 4.6421 22.1835 4.64881 22.2102Z" fill="#BF30B6"/>
</g>
<defs>
<clipPath id="clip0_8_408">
<rect width="38" height="38" fill="white"/>
</clipPath>
</defs>
</svg>
