<?xml version="1.0" encoding="UTF-8"?>
<!DOCTYPE svg PUBLIC "-//W3C//DTD SVG 1.1//EN" "http://www.w3.org/Graphics/SVG/1.1/DTD/svg11.dtd">
<svg xmlns="http://www.w3.org/2000/svg" version="1.1" width="512px" height="512px" style="shape-rendering:geometricPrecision; text-rendering:geometricPrecision; image-rendering:optimizeQuality; fill-rule:evenodd; clip-rule:evenodd" xmlns:xlink="http://www.w3.org/1999/xlink">
<g><path style="opacity:1" fill="#d66558" d="M 271.5,14.5 C 273.379,17.1148 275.712,19.2814 278.5,21C 279.437,21.6917 280.103,21.525 280.5,20.5C 295.052,31.2691 309.386,42.2691 323.5,53.5C 326.251,57.3803 329.918,60.0469 334.5,61.5C 344.539,69.178 354.539,76.8447 364.5,84.5C 366.268,87.5899 368.935,89.5899 372.5,90.5C 384.142,98.8144 395.475,107.481 406.5,116.5C 409.929,120.262 413.929,123.262 418.5,125.5C 426.807,131.147 434.807,137.147 442.5,143.5C 446.937,148.591 452.27,152.591 458.5,155.5C 470.538,164.512 482.538,173.512 494.5,182.5C 495.129,184.997 496.796,186.33 499.5,186.5C 503.246,189.585 507.246,192.251 511.5,194.5C 511.5,204.5 511.5,214.5 511.5,224.5C 500.397,224.954 489.397,224.454 478.5,223C 404.525,166.68 330.191,110.847 255.5,55.5C 179.026,111.474 102.693,167.64 26.5,224C 17.5062,224.5 8.50617,224.666 -0.5,224.5C -0.5,213.833 -0.5,203.167 -0.5,192.5C 2.83333,190.167 6.16667,187.833 9.5,185.5C 12.204,185.33 13.8707,183.997 14.5,181.5C 33.7952,167.178 53.1285,152.845 72.5,138.5C 74.9366,138.114 76.9366,136.947 78.5,135C 78.2716,134.601 77.9382,134.435 77.5,134.5C 136.766,90.4148 195.932,46.0815 255,1.5C 260.687,5.69712 266.187,10.0304 271.5,14.5 Z"/></g>
<g><path style="opacity:0.996" fill="#a3b374" d="M 271.5,14.5 C 274.643,16.2417 277.643,18.2417 280.5,20.5C 280.103,21.525 279.437,21.6917 278.5,21C 275.712,19.2814 273.379,17.1148 271.5,14.5 Z"/></g>
<g><path style="opacity:0.706" fill="#4181c3" d="M 454.5,33.5 C 438.167,33.5 421.833,33.5 405.5,33.5C 405.198,48.8813 405.531,64.2146 406.5,79.5C 405.883,79.3893 405.383,79.056 405,78.5C 404.5,63.1703 404.333,47.837 404.5,32.5C 421.342,32.1702 438.008,32.5035 454.5,33.5 Z"/></g>
<g><path style="opacity:1" fill="#d96456" d="M 454.5,33.5 C 454.833,60.8415 454.5,88.1748 453.5,115.5C 437.791,103.445 422.124,91.4449 406.5,79.5C 405.531,64.2146 405.198,48.8813 405.5,33.5C 421.833,33.5 438.167,33.5 454.5,33.5 Z"/></g>
<g><path style="opacity:0.255" fill="#c7bcb8" d="M 323.5,53.5 C 327.382,55.9341 331.048,58.6007 334.5,61.5C 329.918,60.0469 326.251,57.3803 323.5,53.5 Z"/></g>
<g><path style="opacity:0.267" fill="#a9cb90" d="M 364.5,84.5 C 367.473,86.1468 370.14,88.1468 372.5,90.5C 368.935,89.5899 366.268,87.5899 364.5,84.5 Z"/></g>
<g><path style="opacity:0.999" fill="#d96356" d="M 431.5,223.5 C 431.062,223.435 430.728,223.601 430.5,224C 431.244,225.039 432.244,225.539 433.5,225.5C 434.492,225.328 435.158,225.662 435.5,226.5C 435.062,226.435 434.728,226.601 434.5,227C 435.244,228.039 436.244,228.539 437.5,228.5C 439.544,229.031 441.211,230.198 442.5,232C 407.502,232.5 372.502,232.667 337.5,232.5C 337.5,255.5 337.5,278.5 337.5,301.5C 314.833,301.5 292.167,301.5 269.5,301.5C 269.5,324.5 269.5,347.5 269.5,370.5C 247.167,370.5 224.833,370.5 202.5,370.5C 202.5,393.5 202.5,416.5 202.5,439.5C 179.833,439.5 157.167,439.5 134.5,439.5C 134.831,463.006 134.498,486.339 133.5,509.5C 102.338,508.502 71.0044,508.168 39.5,508.5C 39.172,422.126 39.5053,335.792 40.5,249.5C 49.8817,242.12 59.5484,235.12 69.5,228.5C 70.2389,228.631 70.9056,228.464 71.5,228C 72.7383,227.31 72.7383,226.81 71.5,226.5C 132.766,181.521 194.099,136.521 255.5,91.5C 314.492,135.171 373.158,179.171 431.5,223.5 Z"/></g>
<g><path style="opacity:0.886" fill="#b4bb6f" d="M 406.5,116.5 C 411.071,118.738 415.071,121.738 418.5,125.5C 413.929,123.262 409.929,120.262 406.5,116.5 Z"/></g>
<g><path style="opacity:0.722" fill="#84a846" d="M 77.5,134.5 C 77.9382,134.435 78.2716,134.601 78.5,135C 76.9366,136.947 74.9366,138.114 72.5,138.5C 73.9448,136.937 75.6115,135.604 77.5,134.5 Z"/></g>
<g><path style="opacity:0.914" fill="#b8bf9f" d="M 442.5,143.5 C 448.14,147.147 453.473,151.147 458.5,155.5C 452.27,152.591 446.937,148.591 442.5,143.5 Z"/></g>
<g><path style="opacity:0.722" fill="#83a741" d="M 14.5,181.5 C 13.8707,183.997 12.204,185.33 9.5,185.5C 10.9448,183.937 12.6115,182.604 14.5,181.5 Z"/></g>
<g><path style="opacity:0.984" fill="#9dbc65" d="M 494.5,182.5 C 496.389,183.604 498.055,184.937 499.5,186.5C 496.796,186.33 495.129,184.997 494.5,182.5 Z"/></g>
<g><path style="opacity:0.129" fill="#4cdc68" d="M 431.5,223.5 C 432.5,223.833 433.167,224.5 433.5,225.5C 432.244,225.539 431.244,225.039 430.5,224C 430.728,223.601 431.062,223.435 431.5,223.5 Z"/></g>
<g><path style="opacity:0.129" fill="#4cdc68" d="M 435.5,226.5 C 436.5,226.833 437.167,227.5 437.5,228.5C 436.244,228.539 435.244,228.039 434.5,227C 434.728,226.601 435.062,226.435 435.5,226.5 Z"/></g>
<g><path style="opacity:0.906" fill="#52c570" d="M 71.5,226.5 C 72.7383,226.81 72.7383,227.31 71.5,228C 70.9056,228.464 70.2389,228.631 69.5,228.5C 69.8333,227.5 70.5,226.833 71.5,226.5 Z"/></g>
<g><path style="opacity:0.765" fill="#42caad" d="M 40.5,249.5 C 39.5053,335.792 39.172,422.126 39.5,508.5C 71.0044,508.168 102.338,508.502 133.5,509.5C 101.833,509.5 70.1667,509.5 38.5,509.5C 38.3333,423.166 38.5,336.833 39,250.5C 39.3826,249.944 39.8826,249.611 40.5,249.5 Z"/></g>
<g><path style="opacity:0.427" fill="#659ad8" d="M 472.5,300.5 C 471.505,288.011 471.171,275.344 471.5,262.5C 436.833,262.5 402.167,262.5 367.5,262.5C 367.829,275.344 367.495,288.011 366.5,300.5C 366.5,287.5 366.5,274.5 366.5,261.5C 401.833,261.5 437.167,261.5 472.5,261.5C 472.5,274.5 472.5,287.5 472.5,300.5 Z"/></g>
<g><path style="opacity:0.983" fill="#d96256" d="M 472.5,300.5 C 437.167,301.833 401.833,301.833 366.5,300.5C 367.495,288.011 367.829,275.344 367.5,262.5C 402.167,262.5 436.833,262.5 471.5,262.5C 471.171,275.344 471.505,288.011 472.5,300.5 Z"/></g>
<g><path style="opacity:1" fill="#d5645c" d="M 298.5,330.5 C 334.167,330.5 369.833,330.5 405.5,330.5C 405.5,343.833 405.5,357.167 405.5,370.5C 369.833,370.5 334.167,370.5 298.5,370.5C 298.5,357.167 298.5,343.833 298.5,330.5 Z"/></g>
<g><path style="opacity:1" fill="#d4695e" d="M 434.5,330.5 C 447.167,330.5 459.833,330.5 472.5,330.5C 472.5,343.833 472.5,357.167 472.5,370.5C 459.833,370.5 447.167,370.5 434.5,370.5C 434.5,357.167 434.5,343.833 434.5,330.5 Z"/></g>
<g><path style="opacity:0.983" fill="#d96256" d="M 232.5,399.5 C 267.671,399.168 302.671,399.502 337.5,400.5C 336.505,412.989 336.171,425.656 336.5,438.5C 301.833,438.5 267.167,438.5 232.5,438.5C 232.5,425.5 232.5,412.5 232.5,399.5 Z"/></g>
<g><path style="opacity:0.983" fill="#d96357" d="M 472.5,400.5 C 471.505,412.989 471.171,425.656 471.5,438.5C 436.663,438.168 401.996,438.502 367.5,439.5C 366.504,426.344 366.171,413.01 366.5,399.5C 402.004,399.168 437.337,399.502 472.5,400.5 Z"/></g>
<g><path style="opacity:0.267" fill="#51deac" d="M 232.5,399.5 C 232.5,412.5 232.5,425.5 232.5,438.5C 267.167,438.5 301.833,438.5 336.5,438.5C 336.171,425.656 336.505,412.989 337.5,400.5C 337.5,413.5 337.5,426.5 337.5,439.5C 302.167,439.5 266.833,439.5 231.5,439.5C 231.171,425.99 231.504,412.656 232.5,399.5 Z"/></g>
<g><path style="opacity:0.267" fill="#52e49f" d="M 472.5,400.5 C 472.5,413.5 472.5,426.5 472.5,439.5C 437.5,439.5 402.5,439.5 367.5,439.5C 401.996,438.502 436.663,438.168 471.5,438.5C 471.171,425.656 471.505,412.989 472.5,400.5 Z"/></g>
<g><path style="opacity:1" fill="#d96355" d="M 164.5,468.5 C 198.996,469.498 233.663,469.832 268.5,469.5C 268.5,482.5 268.5,495.5 268.5,508.5C 233.663,508.168 198.996,508.502 164.5,509.5C 163.167,495.833 163.167,482.167 164.5,468.5 Z"/></g>
<g><path style="opacity:0.824" fill="#5beb8d" d="M 164.5,468.5 C 199.5,468.5 234.5,468.5 269.5,468.5C 269.5,482.167 269.5,495.833 269.5,509.5C 234.5,509.5 199.5,509.5 164.5,509.5C 198.996,508.502 233.663,508.168 268.5,508.5C 268.5,495.5 268.5,482.5 268.5,469.5C 233.663,469.832 198.996,469.498 164.5,468.5 Z"/></g>
<g><path style="opacity:0.176" fill="#41d276" d="M 405.5,469.5 C 370.167,469.5 334.833,469.5 299.5,469.5C 299.5,482.5 299.5,495.5 299.5,508.5C 334.671,508.168 369.671,508.502 404.5,509.5C 369.167,509.5 333.833,509.5 298.5,509.5C 298.5,495.833 298.5,482.167 298.5,468.5C 334.337,468.168 370.004,468.502 405.5,469.5 Z"/></g>
<g><path style="opacity:1" fill="#da6356" d="M 405.5,469.5 C 405.829,483.01 405.496,496.344 404.5,509.5C 369.671,508.502 334.671,508.168 299.5,508.5C 299.5,495.5 299.5,482.5 299.5,469.5C 334.833,469.5 370.167,469.5 405.5,469.5 Z"/></g>
<g><path style="opacity:1" fill="#d96555" d="M 435.5,468.5 C 447.322,469.495 459.322,469.828 471.5,469.5C 471.5,482.5 471.5,495.5 471.5,508.5C 459.322,508.172 447.322,508.505 435.5,509.5C 434.167,495.833 434.167,482.167 435.5,468.5 Z"/></g>
<g><path style="opacity:0.133" fill="#4ee7ad" d="M 435.5,468.5 C 447.833,468.5 460.167,468.5 472.5,468.5C 472.5,482.167 472.5,495.833 472.5,509.5C 460.167,509.5 447.833,509.5 435.5,509.5C 447.322,508.505 459.322,508.172 471.5,508.5C 471.5,495.5 471.5,482.5 471.5,469.5C 459.322,469.828 447.322,469.495 435.5,468.5 Z"/></g>
</svg>
