<svg width="25" height="24" viewBox="0 0 25 24" fill="none" xmlns="http://www.w3.org/2000/svg">
<path opacity="0.4" d="M4.48987 14.6599L2.96988 13.1399C2.34988 12.5199 2.34988 11.4999 2.96988 10.8799L4.48987 9.3599C4.74987 9.0999 4.95987 8.58989 4.95987 8.22989V6.07993C4.95987 5.19993 5.67988 4.47989 6.55988 4.47989H8.70987C9.06987 4.47989 9.57988 4.26992 9.83988 4.00992L11.3599 2.4899C11.9799 1.8699 12.9999 1.8699 13.6199 2.4899L15.1399 4.00992C15.3999 4.26992 15.9099 4.47989 16.2699 4.47989H18.4199C19.2999 4.47989 20.0199 5.19993 20.0199 6.07993V8.22989C20.0199 8.58989 20.2299 9.0999 20.4899 9.3599L22.0099 10.8799C22.6299 11.4999 22.6299 12.5199 22.0099 13.1399L20.4899 14.6599C20.2299 14.9199 20.0199 15.4299 20.0199 15.7899V17.9399C20.0199 18.8199 19.2999 19.5399 18.4199 19.5399H16.2699C15.9099 19.5399 15.3999 19.7499 15.1399 20.0099L13.6199 21.5299C12.9999 22.1499 11.9799 22.1499 11.3599 21.5299L9.83988 20.0099C9.57988 19.7499 9.06987 19.5399 8.70987 19.5399H6.55988C5.67988 19.5399 4.95987 18.8199 4.95987 17.9399V15.7899C4.95987 15.4199 4.74987 14.9099 4.48987 14.6599Z" fill="#DAA009"/>
<path d="M15.5 16C14.94 16 14.49 15.55 14.49 15C14.49 14.45 14.94 14 15.49 14C16.04 14 16.49 14.45 16.49 15C16.49 15.55 16.05 16 15.5 16Z" fill="#DAA009"/>
<path d="M9.51001 10C8.95001 10 8.5 9.55 8.5 9C8.5 8.45 8.95 8 9.5 8C10.05 8 10.5 8.45 10.5 9C10.5 9.55 10.06 10 9.51001 10Z" fill="#DAA009"/>
<path d="M9.49994 15.75C9.30994 15.75 9.11994 15.68 8.96994 15.53C8.67994 15.24 8.67994 14.7599 8.96994 14.4699L14.9699 8.46994C15.2599 8.17994 15.7399 8.17994 16.0299 8.46994C16.3199 8.75994 16.3199 9.24 16.0299 9.53L10.0299 15.53C9.87994 15.68 9.68994 15.75 9.49994 15.75Z" fill="#DAA009"/>
</svg>
