<svg width="20" height="20" viewBox="0 0 20 20" fill="none" xmlns="http://www.w3.org/2000/svg">
<g clip-path="url(#clip0_237_1078)">
<path d="M10.0002 0.833252C4.9335 0.833252 0.833496 4.93325 0.833496 9.99992C0.833496 15.0666 4.9335 19.1666 10.0002 19.1666C15.0668 19.1666 19.1668 15.0666 19.1668 9.99992C19.1668 4.93325 15.0668 0.833252 10.0002 0.833252ZM14.7668 7.97492L9.76683 13.1833C9.6085 13.3499 9.3835 13.4333 9.16683 13.4333C8.9835 13.4333 8.79183 13.3749 8.64183 13.2499L5.3085 10.5416C4.95016 10.2499 4.90016 9.72492 5.1835 9.36659C5.47516 9.01659 6.00016 8.95825 6.3585 9.24992L9.10016 11.4749L13.5668 6.81659C13.8835 6.49159 14.4168 6.48325 14.7418 6.79159C15.0752 7.10825 15.0835 7.64159 14.7668 7.97492Z" fill="#2C96FF"/>
</g>
<defs>
<clipPath id="clip0_237_1078">
<rect width="20" height="20" fill="white"/>
</clipPath>
</defs>
</svg>
