<svg width="28" height="28" viewBox="0 0 28 28" fill="none" xmlns="http://www.w3.org/2000/svg">
<g clip-path="url(#clip0_0_548)">
<path d="M28 4.66663H0V23.3335H28V4.66663Z" fill="#F0F0F0"/>
<path d="M15.75 4.6665H12.25V12.2498H0V15.7498H12.25V23.3331H15.75V15.7498H28V12.2498H15.75V4.6665Z" fill="#D80027"/>
<path d="M21.5352 17.2461L28 20.8377V17.2461H21.5352Z" fill="#0052B4"/>
<path d="M17.0435 17.2461L28 23.333V21.6118L20.1418 17.2461H17.0435Z" fill="#0052B4"/>
<path d="M25.0815 23.3331L17.0435 18.8671V23.3331H25.0815Z" fill="#0052B4"/>
<path d="M17.0435 17.2461L28 23.333V21.6118L20.1418 17.2461H17.0435Z" fill="#F0F0F0"/>
<path d="M17.0435 17.2461L28 23.333V21.6118L20.1418 17.2461H17.0435Z" fill="#D80027"/>
<path d="M4.94052 17.246L0 19.9907V17.246H4.94052Z" fill="#0052B4"/>
<path d="M10.9565 18.02V23.333H1.39404L10.9565 18.02Z" fill="#0052B4"/>
<path d="M7.85821 17.2461L0 21.6118V23.333L10.9565 17.2461H7.85821Z" fill="#D80027"/>
<path d="M6.46488 10.7534L0 7.16174V10.7534H6.46488Z" fill="#0052B4"/>
<path d="M10.9565 10.7534L0 4.6665V6.38774L7.85821 10.7534H10.9565Z" fill="#0052B4"/>
<path d="M2.91846 4.6665L10.9565 9.1325V4.6665H2.91846Z" fill="#0052B4"/>
<path d="M10.9565 10.7534L0 4.6665V6.38774L7.85821 10.7534H10.9565Z" fill="#F0F0F0"/>
<path d="M10.9565 10.7534L0 4.6665V6.38774L7.85821 10.7534H10.9565Z" fill="#D80027"/>
<path d="M23.0594 10.7536L28 8.00879V10.7536H23.0594Z" fill="#0052B4"/>
<path d="M17.0435 9.97945V4.6665H26.6059L17.0435 9.97945Z" fill="#0052B4"/>
<path d="M20.1418 10.7534L28 6.38774V4.6665L17.0435 10.7534H20.1418Z" fill="#D80027"/>
<path d="M0.328125 4.34631H27.6719V23.6562H0.328125V4.34631Z" fill="#D42029"/>
<path d="M0.328125 4.34631H27.6719V14.0012H0.328125V4.34631Z" fill="#2240A0"/>
<path d="M27.6719 14.3449H0.328125C0.14875 14.3449 0 14.189 0 14.0011V4.34616C0 4.15819 0.14875 4.00232 0.328125 4.00232H27.6719C27.8512 4.00232 28 4.15819 28 4.34616V14.0011C28 14.189 27.8512 14.3449 27.6719 14.3449ZM0.65625 13.6572H27.3438V4.68999H0.65625V13.6572Z" fill="black"/>
<path d="M13.4662 14.0012L0.328125 23.6562V4.34631L13.4662 14.0012Z" fill="#EEDCD8"/>
<g opacity="0.1">
<path d="M12.8187 7.32164H27.6719V4.34631H0.328125V23.6562H4.33125V16.2155C4.33125 11.301 8.13312 7.32164 12.8187 7.32164Z" fill="black"/>
</g>
<path d="M0.328125 24C0.275625 24 0.223125 23.9862 0.175 23.9633C0.07 23.9037 0 23.7845 0 23.6561V4.34628C0 4.21791 0.07 4.09872 0.175 4.03912C0.284375 3.97952 0.415625 3.98869 0.51625 4.06204L13.6544 13.717C13.7419 13.7811 13.7944 13.8866 13.7944 13.9966C13.7944 14.1066 13.7419 14.2121 13.6544 14.2763L0.51625 23.9358C0.459375 23.977 0.39375 24 0.328125 24ZM0.65625 5.00645V22.9914L12.8975 14.0012L0.65625 5.00645Z" fill="black"/>
<path d="M27.6719 23.9998H0.328125C0.14875 23.9998 0 23.844 0 23.656V4.34616C0 4.15819 0.14875 4.00232 0.328125 4.00232H27.6719C27.8512 4.00232 28 4.15819 28 4.34616V23.656C28 23.844 27.8512 23.9998 27.6719 23.9998ZM0.65625 23.3122H27.3438V4.68999H0.65625V23.3122Z" fill="black"/>
<path d="M6.615 14.0012C6.615 15.216 5.67437 16.2063 4.51062 16.2063C3.34688 16.2063 2.40625 15.2206 2.40625 14.0012C2.40625 12.7817 3.34688 11.796 4.51062 11.796C5.67 11.796 6.615 12.7817 6.615 14.0012Z" fill="#FFDC21"/>
<path d="M4.51063 16.5501C3.1675 16.5501 2.07812 15.4086 2.07812 14.0011C2.07812 12.5937 3.17188 11.4521 4.51063 11.4521C5.84938 11.4521 6.94313 12.5983 6.94313 14.0011C6.94313 15.4086 5.84938 16.5501 4.51063 16.5501ZM4.51063 12.1398C3.53063 12.1398 2.73438 12.9742 2.73438 14.0011C2.73438 15.028 3.53063 15.8624 4.51063 15.8624C5.49063 15.8624 6.28688 15.028 6.28688 14.0011C6.28688 12.9742 5.49063 12.1398 4.51063 12.1398Z" fill="black"/>
</g>
<defs>
<clipPath id="clip0_0_548">
<rect width="28" height="28" fill="white"/>
</clipPath>
</defs>
</svg>
