<svg width="32" height="32" viewBox="0 0 32 32" fill="none" xmlns="http://www.w3.org/2000/svg">
<path d="M28.3599 13.2448H26.7971V11.9223C26.7971 9.53344 26.0326 7.26956 24.5863 5.37544C23.3781 3.79319 21.7334 2.56444 19.8878 1.84869L20.6761 6.854C20.7567 7.36544 20.4073 7.84538 19.896 7.92594C19.8466 7.93369 19.7974 7.9375 19.7489 7.9375C19.2954 7.9375 18.8967 7.60781 18.824 7.14569L17.6986 0H14.3013L13.1759 7.14575C13.1031 7.60781 12.7044 7.93756 12.251 7.93756C12.2025 7.93756 12.1534 7.93381 12.104 7.926C11.5925 7.84544 11.2431 7.3655 11.3237 6.85406L12.112 1.84869C10.2664 2.56444 8.62158 3.79313 7.41333 5.37544C5.96696 7.26956 5.20252 9.53337 5.20252 11.9224V13.2449H3.63989C3.12214 13.2449 2.70239 13.6646 2.70239 14.1824V16.0573C2.70239 16.5751 3.12214 16.9948 3.63989 16.9948H28.3599C28.8776 16.9948 29.2974 16.5751 29.2974 16.0573V14.1824C29.2974 13.6645 28.8776 13.2448 28.3599 13.2448ZM19.8718 18.8697C20.102 19.3989 20.2207 19.9698 20.2203 20.5469C20.2203 22.8741 18.327 24.7673 15.9999 24.7673C13.6728 24.7673 11.7796 22.8741 11.7796 20.5469C11.7792 19.9698 11.8978 19.3989 12.1281 18.8697H4.23396C4.15454 19.4252 4.11448 19.9857 4.11408 20.5469C4.11408 21.5045 4.22977 22.4601 4.45796 23.3872C4.50806 23.5908 4.62497 23.7717 4.78999 23.901C4.955 24.0303 5.15861 24.1006 5.36827 24.1006H7.49271C7.79617 24.8264 8.19205 25.5099 8.67052 26.1343L7.60952 27.9721C7.50471 28.1536 7.46376 28.365 7.49322 28.5725C7.52267 28.7801 7.62083 28.9717 7.77202 29.1169C9.15627 30.4465 10.8563 31.4305 12.6881 31.9626C12.8896 32.0212 13.1048 32.0105 13.2994 31.9322C13.494 31.854 13.6567 31.7127 13.7616 31.5311L14.8235 29.6916C15.6045 29.7911 16.395 29.7911 17.176 29.6916L18.2381 31.5312C18.343 31.7128 18.5057 31.854 18.7003 31.9323C18.8949 32.0105 19.1101 32.0212 19.3115 31.9627C21.1432 31.4306 22.8431 30.4466 24.2276 29.1171C24.3788 28.9719 24.477 28.7802 24.5064 28.5726C24.5359 28.3651 24.495 28.1537 24.3901 27.9721L23.3293 26.1344C23.8077 25.51 24.2036 24.8264 24.5071 24.1006H26.6315C26.8412 24.1006 27.0448 24.0304 27.2098 23.901C27.3748 23.7717 27.4917 23.5908 27.5418 23.3873C27.7703 22.4578 27.8858 21.5041 27.8857 20.5469C27.8857 19.9853 27.8448 19.4246 27.7658 18.8697H19.8718Z" fill="#20638C"/>
<path d="M18.3453 20.5469C18.3453 19.8901 18.0735 19.2958 17.637 18.8696H14.3628C13.9263 19.2958 13.6545 19.8901 13.6545 20.5469C13.6545 21.8401 14.7067 22.8923 15.9999 22.8923C17.2932 22.8923 18.3453 21.8401 18.3453 20.5469Z" fill="#20638C"/>
</svg>
