<svg width="28" height="28" viewBox="0 0 28 28" fill="none" xmlns="http://www.w3.org/2000/svg">
<g clip-path="url(#clip0_0_514)">
<path d="M28 4.66663H0V23.3335H28V4.66663Z" fill="#F0F0F0"/>
<path d="M15.75 4.6665H12.25V12.2498H0V15.7498H12.25V23.3331H15.75V15.7498H28V12.2498H15.75V4.6665Z" fill="#D80027"/>
<path d="M21.5352 17.2461L28 20.8377V17.2461H21.5352Z" fill="#0052B4"/>
<path d="M17.0435 17.2461L28 23.333V21.6118L20.1418 17.2461H17.0435Z" fill="#0052B4"/>
<path d="M25.0815 23.3331L17.0435 18.8671V23.3331H25.0815Z" fill="#0052B4"/>
<path d="M17.0435 17.2461L28 23.333V21.6118L20.1418 17.2461H17.0435Z" fill="#F0F0F0"/>
<path d="M17.0435 17.2461L28 23.333V21.6118L20.1418 17.2461H17.0435Z" fill="#D80027"/>
<path d="M4.94052 17.246L0 19.9907V17.246H4.94052Z" fill="#0052B4"/>
<path d="M10.9565 18.02V23.333H1.39404L10.9565 18.02Z" fill="#0052B4"/>
<path d="M7.85821 17.2461L0 21.6118V23.333L10.9565 17.2461H7.85821Z" fill="#D80027"/>
<path d="M6.46488 10.7534L0 7.16174V10.7534H6.46488Z" fill="#0052B4"/>
<path d="M10.9565 10.7534L0 4.6665V6.38774L7.85821 10.7534H10.9565Z" fill="#0052B4"/>
<path d="M2.91846 4.6665L10.9565 9.1325V4.6665H2.91846Z" fill="#0052B4"/>
<path d="M10.9565 10.7534L0 4.6665V6.38774L7.85821 10.7534H10.9565Z" fill="#F0F0F0"/>
<path d="M10.9565 10.7534L0 4.6665V6.38774L7.85821 10.7534H10.9565Z" fill="#D80027"/>
<path d="M23.0594 10.7536L28 8.00879V10.7536H23.0594Z" fill="#0052B4"/>
<path d="M17.0435 9.97945V4.6665H26.6059L17.0435 9.97945Z" fill="#0052B4"/>
<path d="M20.1418 10.7534L28 6.38774V4.6665L17.0435 10.7534H20.1418Z" fill="#D80027"/>
<path d="M28 4H0V24H28V4Z" fill="#F0F0F0"/>
<path d="M28 4H0V10.6666H28V4Z" fill="#FF9811"/>
<path d="M28 17.3334H0V24H28V17.3334Z" fill="#6DA544"/>
<path d="M14 16.5722C15.3258 16.5722 16.4006 15.4206 16.4006 14.0001C16.4006 12.5795 15.3258 11.428 14 11.428C12.6743 11.428 11.5995 12.5795 11.5995 14.0001C11.5995 15.4206 12.6743 16.5722 14 16.5722Z" fill="#0052B4"/>
<path d="M14.0001 15.6076C14.8286 15.6076 15.5003 14.8879 15.5003 14.0001C15.5003 13.1123 14.8286 12.3926 14.0001 12.3926C13.1715 12.3926 12.4998 13.1123 12.4998 14.0001C12.4998 14.8879 13.1715 15.6076 14.0001 15.6076Z" fill="#F0F0F0"/>
<path d="M14 12.0164L14.4629 13.1411L15.6034 13.0082L14.9257 14L15.6034 14.9919L14.4629 14.859L14 15.9837L13.5371 14.859L12.3966 14.9919L13.0743 14L12.3966 13.0082L13.5371 13.1411L14 12.0164Z" fill="#0052B4"/>
</g>
<defs>
<clipPath id="clip0_0_514">
<rect width="28" height="28" fill="white"/>
</clipPath>
</defs>
</svg>
