<svg width="32" height="32" viewBox="0 0 32 32" fill="none" xmlns="http://www.w3.org/2000/svg">
<g clip-path="url(#clip0_8_397)">
<path d="M15.9997 26.3594H31.0622C31.5799 26.3594 31.9997 26.7791 31.9997 27.2969V31.0625C31.9997 31.5803 31.5799 32 31.0622 32H15.9997C15.4819 32 15.0622 31.5803 15.0622 31.0625V27.2969C15.0622 26.7791 15.4819 26.3594 15.9997 26.3594ZM0.825687 24.2389L10.8191 14.2454L14.8076 18.2339L4.81425 28.2274C4.26444 28.7772 3.54219 29.0521 2.82 29.0521C2.09781 29.0521 1.37556 28.7773 0.82575 28.2274C-0.273937 27.1278 -0.273937 25.3385 0.825687 24.2389ZM10.8059 11.5834L17.4561 4.9332L24.1174 11.5944L17.4672 18.2447L10.8059 11.5834ZM27.4416 12.2512L28.7785 13.5881C29.1446 13.9542 29.1446 14.5478 28.7785 14.9139L20.7904 22.902C20.6073 23.0851 20.3674 23.1766 20.1275 23.1766C19.8876 23.1766 19.6476 23.0851 19.4646 22.902L18.1277 21.5651C17.7616 21.199 17.7616 20.6054 18.1277 20.2393L26.1158 12.2513C26.4819 11.8851 27.0755 11.8851 27.4416 12.2512ZM8.81381 10.9254C8.44769 11.2915 7.85412 11.2915 7.488 10.9254L6.15112 9.58851C5.785 9.22238 5.785 8.62882 6.15112 8.2627L14.1392 0.27457C14.5052 -0.0914922 15.0988 -0.0915547 15.465 0.27457L16.8019 1.61145C17.168 1.97757 17.168 2.57113 16.8019 2.93726L8.81381 10.9254Z" fill="#A67246"/>
</g>
<defs>
<clipPath id="clip0_8_397">
<rect width="32" height="32" fill="white"/>
</clipPath>
</defs>
</svg>
