<?xml version="1.0" encoding="UTF-8"?>
<!DOCTYPE svg PUBLIC "-//W3C//DTD SVG 1.1//EN" "http://www.w3.org/Graphics/SVG/1.1/DTD/svg11.dtd">
<svg xmlns="http://www.w3.org/2000/svg" version="1.1" width="512px" height="512px" style="shape-rendering:geometricPrecision; text-rendering:geometricPrecision; image-rendering:optimizeQuality; fill-rule:evenodd; clip-rule:evenodd" xmlns:xlink="http://www.w3.org/1999/xlink">
<g><path style="opacity:1" fill="#88a25a" d="M 305.5,-0.5 C 308.167,-0.5 310.833,-0.5 313.5,-0.5C 333.561,43.6728 329.394,85.3395 301,124.5C 281.035,148.061 255.869,161.394 225.5,164.5C 235.608,146.606 245.941,128.939 256.5,111.5C 256.435,111.938 256.601,112.272 257,112.5C 258.481,109.89 259.648,107.223 260.5,104.5C 262.388,100.394 264.554,96.3944 267,92.5C 267.494,90.8659 267.66,89.1992 267.5,87.5C 268.713,86.5029 268.546,85.5029 267,84.5C 266.601,84.7284 266.435,85.0618 266.5,85.5C 263.637,82.2292 260.303,81.7292 256.5,84C 250.933,93.646 245.266,103.146 239.5,112.5C 237.616,113.382 236.283,114.882 235.5,117C 235.728,117.399 236.062,117.565 236.5,117.5C 233.528,122.816 230.528,128.15 227.5,133.5C 225.567,134.642 224.067,136.308 223,138.5C 222.308,139.437 222.475,140.103 223.5,140.5C 220.43,146.304 217.097,151.97 213.5,157.5C 198.763,122.386 200.597,88.0525 219,54.5C 239.175,22.6564 268.009,4.3231 305.5,-0.5 Z"/></g>
<g><path style="opacity:1" fill="#88a15a" d="M 471.5,62.5 C 470.957,62.56 470.624,62.8933 470.5,63.5C 471.409,66.586 472.409,68.9193 473.5,70.5C 477.175,98.3561 465.508,116.523 438.5,125C 411.565,128.624 393.398,117.79 384,92.5C 378.506,65.9872 388.006,47.1538 412.5,36C 433.158,29.7262 450.658,34.5595 465,50.5C 467.831,54.1583 469.998,58.1583 471.5,62.5 Z"/></g>
<g><path style="opacity:1" fill="#89a15c" d="M 137.5,99.5 C 136.957,99.56 136.624,99.8933 136.5,100.5C 137.194,102.812 138.194,104.146 139.5,104.5C 147.65,122.707 148.483,141.374 142,160.5C 141.333,161.833 140.667,161.833 140,160.5C 131.38,144.087 121.88,128.253 111.5,113C 106.203,111.618 102.869,113.618 101.5,119C 106.391,128.617 111.391,138.117 116.5,147.5C 116.062,147.435 115.728,147.601 115.5,148C 117.041,149.579 118.208,151.413 119,153.5C 119.399,153.272 119.565,152.938 119.5,152.5C 122.726,157.271 125.726,162.271 128.5,167.5C 110,165.708 94.9998,157.375 83.5,142.5C 82.9278,140.745 82.0945,139.078 81,137.5C 80.31,136.262 79.81,136.262 79.5,137.5C 63.2743,112.855 61.2743,87.0215 73.5,60C 102.235,61.1997 123.568,74.3664 137.5,99.5 Z"/></g>
<g><path style="opacity:0.384" fill="#bd68a6" d="M 471.5,62.5 C 472.774,64.9925 473.44,67.6592 473.5,70.5C 472.409,68.9193 471.409,66.586 470.5,63.5C 470.624,62.8933 470.957,62.56 471.5,62.5 Z"/></g>
<g><path style="opacity:0.122" fill="#4026c7" d="M 267.5,87.5 C 267.167,86.8333 266.833,86.1667 266.5,85.5C 266.435,85.0618 266.601,84.7284 267,84.5C 268.546,85.5029 268.713,86.5029 267.5,87.5 Z"/></g>
<g><path style="opacity:0.973" fill="#823da1" d="M 137.5,99.5 C 138.441,101.05 139.107,102.716 139.5,104.5C 138.194,104.146 137.194,102.812 136.5,100.5C 136.624,99.8933 136.957,99.56 137.5,99.5 Z"/></g>
<g><path style="opacity:0.902" fill="#a567c2" d="M 260.5,104.5 C 259.648,107.223 258.481,109.89 257,112.5C 256.601,112.272 256.435,111.938 256.5,111.5C 257.079,108.669 258.412,106.336 260.5,104.5 Z"/></g>
<g><path style="opacity:0.118" fill="#b14690" d="M 239.5,112.5 C 238.737,114.368 237.737,116.035 236.5,117.5C 236.062,117.565 235.728,117.399 235.5,117C 236.283,114.882 237.616,113.382 239.5,112.5 Z"/></g>
<g><path style="opacity:1" fill="#89a25c" d="M 363.5,152.5 C 363.435,152.938 363.601,153.272 364,153.5C 365.559,151.783 366.392,149.783 366.5,147.5C 371.642,137.889 377.309,128.556 383.5,119.5C 392.975,129.241 404.308,135.907 417.5,139.5C 407.373,157.586 397.373,175.753 387.5,194C 370.833,194.667 354.167,194.667 337.5,194C 346.03,179.994 354.696,166.16 363.5,152.5 Z"/></g>
<g><path style="opacity:0.376" fill="#bf80c7" d="M 227.5,133.5 C 226.42,135.996 225.086,138.33 223.5,140.5C 222.475,140.103 222.308,139.437 223,138.5C 224.067,136.308 225.567,134.642 227.5,133.5 Z"/></g>
<g><path style="opacity:0.459" fill="#aa5d9a" d="M 83.5,142.5 C 81.457,141.421 80.1237,139.754 79.5,137.5C 79.81,136.262 80.31,136.262 81,137.5C 82.0945,139.078 82.9278,140.745 83.5,142.5 Z"/></g>
<g><path style="opacity:0.902" fill="#bb7fc3" d="M 116.5,147.5 C 118.25,148.659 119.25,150.326 119.5,152.5C 119.565,152.938 119.399,153.272 119,153.5C 118.208,151.413 117.041,149.579 115.5,148C 115.728,147.601 116.062,147.435 116.5,147.5 Z"/></g>
<g><path style="opacity:0.824" fill="#84448a" d="M 366.5,147.5 C 366.392,149.783 365.559,151.783 364,153.5C 363.601,153.272 363.435,152.938 363.5,152.5C 364.11,150.566 365.11,148.899 366.5,147.5 Z"/></g>
<g><path style="opacity:0.996" fill="#88a05b" d="M 459.5,211.5 C 460.539,213.531 462.205,214.864 464.5,215.5C 471.139,221.692 473.639,229.359 472,238.5C 470.358,246.642 465.858,252.642 458.5,256.5C 458.167,255.833 457.833,255.167 457.5,254.5C 461.469,244.913 459.136,237.413 450.5,232C 422.5,231.333 394.5,231.333 366.5,232C 362.132,234.226 359.298,237.726 358,242.5C 358.293,247.818 358.793,253.151 359.5,258.5C 255.833,258.667 152.166,258.5 48.5,258C 32.69,250.924 27.5233,239.091 33,222.5C 35.8924,216.608 40.3924,212.441 46.5,210C 182.111,208.338 317.778,208.005 453.5,209C 455.641,209.573 457.641,210.406 459.5,211.5 Z"/></g>
<g><path style="opacity:0.973" fill="#7644be" d="M 459.5,211.5 C 461.754,212.124 463.421,213.457 464.5,215.5C 462.205,214.864 460.539,213.531 459.5,211.5 Z"/></g>
<g><path style="opacity:0.967" fill="#88a45c" d="M 371.5,244.5 C 396.167,244.5 420.833,244.5 445.5,244.5C 443.705,254.143 442.038,263.809 440.5,273.5C 419.167,273.5 397.833,273.5 376.5,273.5C 374.962,263.809 373.295,254.143 371.5,244.5 Z"/></g>
<g><path style="opacity:0.267" fill="#87e095" d="M 62.5,273.5 C 161.332,272.334 260.332,272.168 359.5,273C 358.473,273.513 357.473,274.013 356.5,274.5C 258.668,273.501 160.668,273.167 62.5,273.5 Z"/></g>
<g><path style="opacity:1" fill="#86a258" d="M 62.5,273.5 C 160.668,273.167 258.668,273.501 356.5,274.5C 344.069,278.991 338.403,287.991 339.5,301.5C 338.865,311.059 342.198,318.893 349.5,325C 351.65,326.411 353.984,327.245 356.5,327.5C 356.828,332.875 356.495,338.208 355.5,343.5C 346.57,349.594 338.07,356.261 330,363.5C 327.122,367.049 325.122,371.049 324,375.5C 322.866,397.965 322.366,420.465 322.5,443C 322.667,463.5 322.833,484 323,504.5C 323.44,506.866 323.94,509.199 324.5,511.5C 261.167,511.5 197.833,511.5 134.5,511.5C 91.8858,503.383 68.0525,477.716 63,434.5C 62.5,380.834 62.3333,327.168 62.5,273.5 Z"/></g>
<g><path style="opacity:1" fill="#88a259" d="M 353.5,306.5 C 354.325,302.353 354.825,298.019 355,293.5C 355.997,291.677 357.164,290.01 358.5,288.5C 391.998,287.336 425.664,287.169 459.5,288C 462.102,288.935 463.602,290.768 464,293.5C 464.667,298.833 464.667,304.167 464,309.5C 463.215,311.286 462.049,312.786 460.5,314C 426.167,314.667 391.833,314.667 357.5,314C 354.976,312.117 353.642,309.617 353.5,306.5 Z"/></g>
<g><path style="opacity:0.224" fill="#c694b0" d="M 358.5,288.5 C 357.164,290.01 355.997,291.677 355,293.5C 354.825,298.019 354.325,302.353 353.5,306.5C 353.334,301.821 353.501,297.155 354,292.5C 354.748,290.249 356.248,288.916 358.5,288.5 Z"/></g>
<g><path style="opacity:0.4" fill="#ad3de1" d="M 446.5,349.5 C 445.509,343.021 445.176,336.354 445.5,329.5C 420.833,329.5 396.167,329.5 371.5,329.5C 371.824,336.354 371.491,343.021 370.5,349.5C 370.5,342.5 370.5,335.5 370.5,328.5C 395.833,328.5 421.167,328.5 446.5,328.5C 446.5,335.5 446.5,342.5 446.5,349.5 Z"/></g>
<g><path style="opacity:1" fill="#86a258" d="M 446.5,349.5 C 455.981,356.08 465.315,362.913 474.5,370C 477.231,372.626 479.064,375.793 480,379.5C 480.667,421.5 480.667,463.5 480,505.5C 478.979,508.35 477.146,510.35 474.5,511.5C 430.5,511.5 386.5,511.5 342.5,511.5C 339.854,510.35 338.021,508.35 337,505.5C 336.333,463.5 336.333,421.5 337,379.5C 337.936,375.793 339.769,372.626 342.5,370C 351.685,362.913 361.019,356.08 370.5,349.5C 371.491,343.021 371.824,336.354 371.5,329.5C 396.167,329.5 420.833,329.5 445.5,329.5C 445.176,336.354 445.509,343.021 446.5,349.5 Z"/></g>
</svg>
