<svg xmlns="http://www.w3.org/2000/svg" version="1.1" xmlns:xlink="http://www.w3.org/1999/xlink" width="512" height="512" x="0" y="0" viewBox="0 0 28 28" style="enable-background:new 0 0 512 512" xml:space="preserve" class=""><g><switch><g><path fill="#000000" d="M14 24c-1.1 0-2-.9-2-2s.9-2 2-2 2 .9 2 2-.9 2-2 2zm11.7 1.7c-.4.4-1 .4-1.4 0L14.6 16c-1.3-.1-2.6.2-3.7.8-.4.2-.8.5-1.1.9-.4.4-1 .4-1.4 0s-.4-1 0-1.4c.5-.5 1-.8 1.5-1.2.9-.5 1.8-.9 2.8-1l-2.4-2.4c-1 .4-2 .9-2.9 1.6-.4.3-.8.7-1.1 1-.4.4-1 .4-1.4 0s-.4-1 0-1.4.8-.8 1.3-1.2c.8-.7 1.6-1.2 2.5-1.6L6.5 7.9c-1 .5-2 1.1-2.8 1.9-.4.4-1 .3-1.4-.1s-.3-1 .1-1.4c.8-.7 1.7-1.4 2.6-1.9L2.3 3.7c-.4-.4-.4-1 0-1.4s1-.4 1.4 0l3.2 3.2.5.5 3.8 3.8 4.5 4.5 9.9 9.9c.5.5.5 1.1.1 1.5z" opacity="1" data-original="#858589"></path><g fill="#1E4777"><path d="M22.5 14.5c-.3 0-.5-.1-.7-.3-1.7-1.7-3.8-2.7-6.1-3.1-.5-.1-.9-.6-.8-1.1s.6-.9 1.1-.8c2.8.4 5.3 1.7 7.3 3.7.5.5 0 1.6-.8 1.6zM25 10c-.2 0-.5-.1-.6-.2C21.5 7.4 17.8 6 14 6c-1 0-2 .1-2.9.3-.6.1-1.2-.4-1.2-1 0-.5.4-.9.9-1 1-.2 2.1-.3 3.2-.3 4.3 0 8.4 1.5 11.6 4.3.8.6.3 1.8-.6 1.7z" fill="#000000" opacity="1" data-original="#1e4777" class=""></path></g></g></switch></g></svg>