<svg width="25" height="24" viewBox="0 0 25 24" fill="none" xmlns="http://www.w3.org/2000/svg">
<path opacity="0.4" d="M12.5 22.01C18.0228 22.01 22.5 17.5329 22.5 12.01C22.5 6.48716 18.0228 2.01001 12.5 2.01001C6.97715 2.01001 2.5 6.48716 2.5 12.01C2.5 17.5329 6.97715 22.01 12.5 22.01Z" fill="#DAA009"/>
<path d="M12.5 6.93994C10.43 6.93994 8.75 8.61994 8.75 10.6899C8.75 12.7199 10.34 14.3699 12.45 14.4299C12.48 14.4299 12.52 14.4299 12.54 14.4299C12.56 14.4299 12.59 14.4299 12.61 14.4299C12.62 14.4299 12.63 14.4299 12.63 14.4299C14.65 14.3599 16.24 12.7199 16.25 10.6899C16.25 8.61994 14.57 6.93994 12.5 6.93994Z" fill="#DAA009"/>
<path d="M19.2797 19.36C17.4997 21 15.1197 22.01 12.4997 22.01C9.87973 22.01 7.49973 21 5.71973 19.36C5.95973 18.45 6.60973 17.62 7.55973 16.98C10.2897 15.16 14.7297 15.16 17.4397 16.98C18.3997 17.62 19.0397 18.45 19.2797 19.36Z" fill="#DAA009"/>
</svg>
