<svg width="32" height="32" viewBox="0 0 32 32" fill="none" xmlns="http://www.w3.org/2000/svg">
<g clip-path="url(#clip0_8_419)">
<path d="M29.5122 2.4668C26.2213 -0.822266 20.8684 -0.822266 17.5775 2.4668L10.6196 9.42467L18.5192 17.3243C20.1451 15.9704 22.2064 15.1226 24.4825 15.1226C25.788 15.1226 27.0303 15.3938 28.1607 15.878L29.5122 14.4015C32.8021 11.1115 32.8021 5.75773 29.5122 2.4668ZM17.2043 18.6611L9.29368 10.7505L2.48381 17.5671C-0.806127 20.857 -0.806127 26.2109 2.48381 29.5018C5.77462 32.7907 11.1901 32.8534 14.481 29.5642L15.8615 28.1771C15.3772 27.0467 15.1061 25.8044 15.1061 24.4989C15.1061 22.2813 15.9124 20.2682 17.2043 18.6611ZM16.9814 24.499C16.9814 28.3205 19.8497 31.4393 23.5448 31.9055V17.0924C19.8497 17.5586 16.9814 20.6773 16.9814 24.499ZM25.4201 17.0924V31.9055C29.1152 31.4393 31.9835 28.3205 31.9835 24.4989C31.9835 20.6774 29.1152 17.5586 25.4201 17.0924Z" fill="#1FBFAF"/>
</g>
<defs>
<clipPath id="clip0_8_419">
<rect width="32" height="32" fill="white"/>
</clipPath>
</defs>
</svg>
