<svg width="32" height="32" viewBox="0 0 32 32" fill="none" xmlns="http://www.w3.org/2000/svg">
<g clip-path="url(#clip0_8_378)">
<path d="M8.31654 23.6833C7.95047 23.3172 7.35685 23.3172 6.99072 23.6833L0.27435 30.3996C-0.0917754 30.7657 -0.0917754 31.3593 0.27435 31.7254C0.640412 32.0915 1.23404 32.0915 1.60016 31.7254L8.31654 25.0091C8.68266 24.6429 8.68266 24.0493 8.31654 23.6833ZM10.407 26.2911L6.29885 30.3985C5.93272 30.7646 5.93272 31.3582 6.29885 31.7243C6.66491 32.0904 7.25854 32.0904 7.62466 31.7243L11.7329 27.6169C12.099 27.2508 12.099 26.6572 11.7329 26.2911C11.3667 25.925 10.7731 25.925 10.407 26.2911ZM1.60016 25.6999L5.70835 21.5924C6.07447 21.2264 6.07447 20.6328 5.70835 20.2666C5.34229 19.9006 4.74866 19.9006 4.38254 20.2666L0.27435 24.3741C-0.0917754 24.7401 -0.0917754 25.3338 0.27435 25.6999C0.640475 26.066 1.2341 26.066 1.60016 25.6999ZM14.7695 11.6032L16.3967 16.6122H21.6633L23.291 11.6031L19.0303 8.50731L14.7695 11.6032ZM8.94791 21.1683C10.3808 22.9263 12.2597 24.2927 14.3662 25.1088L13.0861 21.1683H8.94791ZM23.6943 25.1088C25.8009 24.2927 27.6798 22.9263 29.1126 21.1683H24.9745L23.6943 25.1088ZM8.13147 5.927C6.89485 7.83484 6.18082 10.0339 6.06079 12.3043L9.41197 9.86938L8.13147 5.927ZM29.9291 5.92706L28.6486 9.86938L31.9998 12.3043C31.8797 10.0339 31.1657 7.83489 29.9291 5.92706ZM19.9678 6.87081L24.5573 10.2056L26.8052 9.47544L28.5357 4.14769C27.3999 2.92725 26.0328 1.92525 24.5046 1.21194L19.9678 4.5075V6.87081ZM13.5033 10.2056L18.0928 6.87081V4.51419L13.5508 1.21431C12.0247 1.92744 10.6594 2.92856 9.52491 4.14756L11.2555 9.4755L13.5033 10.2056ZM10.6853 11.2618L6.13885 14.5653C6.3408 16.2264 6.86425 17.8323 7.67997 19.2933H13.2896L14.6762 17.3846L12.9233 11.9886L10.6853 11.2618ZM16.1928 18.4872L14.8065 20.3954L16.541 25.7346C17.347 25.8917 18.1791 25.9749 19.0303 25.9749C19.8816 25.9749 20.7137 25.8917 21.5197 25.7346L23.254 20.3959L21.8672 18.4871H16.1928V18.4872ZM25.1373 11.9886L23.3838 17.3847L24.7705 19.2933H30.3807C31.1964 17.8323 31.7198 16.2264 31.9218 14.5653L27.3751 11.2618L25.1373 11.9886ZM22.3818 0.436438C21.2955 0.146375 20.1739 0 19.0303 0C17.8847 0 16.761 0.147 15.6725 0.43825L19.0257 2.87444L22.3818 0.436438Z" fill="#055902"/>
</g>
<defs>
<clipPath id="clip0_8_378">
<rect width="32" height="32" fill="white"/>
</clipPath>
</defs>
</svg>
