<svg width="32" height="32" viewBox="0 0 32 32" fill="none" xmlns="http://www.w3.org/2000/svg">
<g clip-path="url(#clip0_8_424)">
<path d="M12.6762 15.0597C14.026 13.8889 14.9083 12.2705 15.1611 10.5016L15.5921 7.48431C15.6139 7.33175 15.6249 7.17606 15.6249 7.02163C15.625 5.21763 14.1574 3.75 12.3534 3.75H11.875V3.4375C11.875 2.91975 11.4552 2.5 10.9375 2.5C10.4198 2.5 10 2.91975 10 3.4375V5.9375C10 6.45525 10.4198 6.875 10.9375 6.875C11.4552 6.875 11.875 6.45525 11.875 5.9375V5.625H12.3534C13.1235 5.625 13.75 6.2515 13.75 7.02163C13.75 7.08771 13.7453 7.15371 13.7359 7.21912L13.3049 10.2364C12.917 12.9521 10.5557 15 7.8125 15C5.06925 15 2.708 12.9521 2.32013 10.2364L1.889 7.21906C1.87971 7.15366 1.87503 7.08768 1.875 7.02163C1.875 6.2515 2.5015 5.625 3.27163 5.625H3.75V5.9375C3.75 6.45525 4.16975 6.875 4.6875 6.875C5.20525 6.875 5.625 6.45525 5.625 5.9375V3.4375C5.625 2.91975 5.20525 2.5 4.6875 2.5C4.16975 2.5 3.75 2.91975 3.75 3.4375V3.75H3.27163C1.46763 3.75 0 5.21763 0 7.02163C3.2753e-05 7.17641 0.0109975 7.33101 0.0328125 7.48425L0.463875 10.5016C0.716648 12.2705 1.59892 13.8889 2.94875 15.0597C4.2985 16.2303 6.02581 16.875 7.8125 16.875C9.59919 16.875 11.3265 16.2303 12.6762 15.0597ZM20.75 29.1875C20.75 30.7383 22.0117 32 23.5625 32H24.5V24.6875C24.5 24.1698 24.9198 23.75 25.4375 23.75C25.9552 23.75 26.375 24.1698 26.375 24.6875V32H27.3125C28.8633 32 30.125 30.7383 30.125 29.1875V21.5625H20.75V29.1875Z" fill="#87A358"/>
<path d="M25.4375 6.875C27.336 6.875 28.875 5.33598 28.875 3.4375C28.875 1.53902 27.336 0 25.4375 0C23.539 0 22 1.53902 22 3.4375C22 5.33598 23.539 6.875 25.4375 6.875Z" fill="#87A358"/>
<path d="M25.4375 15C25.9553 15 26.375 14.5803 26.375 14.0625C26.375 13.5447 25.9553 13.125 25.4375 13.125C24.9197 13.125 24.5 13.5447 24.5 14.0625C24.5 14.5803 24.9197 15 25.4375 15Z" fill="#87A358"/>
<path d="M29.0443 7.3335C28.0962 8.21181 26.8288 8.75006 25.4376 8.75006C24.0463 8.75006 22.7789 8.21181 21.8309 7.3335C20.0517 8.50856 18.8751 10.5254 18.8751 12.8126V13.1298C18.9375 13.127 19 13.1254 19.0626 13.1251H22.7863C23.1903 11.9861 24.308 11.1819 25.5993 11.2546C27.0346 11.3354 28.1906 12.5118 28.2478 13.9482C28.3116 15.5509 27.0263 16.8751 25.4376 16.8751C24.2154 16.8751 23.1733 16.0912 22.7863 15.0001H19.0626C18.9995 15.0001 18.9371 15.0029 18.8751 15.007V17.8126C18.8751 18.8481 19.7145 19.6876 20.7501 19.6876H30.1251C31.1606 19.6876 32.0001 18.8481 32.0001 17.8126V12.8126C32.0001 10.5254 30.8234 8.50856 29.0443 7.3335ZM14.3751 17.8126V27.3126C14.3751 28.8634 13.1134 30.1251 11.5626 30.1251C10.0118 30.1251 8.75006 28.8634 8.75006 27.3126V20.4072C9.37356 20.1001 9.82881 19.4949 9.92013 18.7645L9.95325 18.4996C9.2565 18.6646 8.5385 18.7501 7.81256 18.7501C7.08663 18.7501 6.36863 18.6646 5.67188 18.4997L5.705 18.7646C5.79631 19.495 6.25156 20.1001 6.87506 20.4072V27.3126C6.87506 29.8972 8.97788 32.0001 11.5626 32.0001C14.1473 32.0001 16.2501 29.8972 16.2501 27.3126V17.8126C16.2501 16.3248 17.4114 15.1039 18.8751 15.007V13.1298C16.3771 13.2287 14.3751 15.2907 14.3751 17.8126Z" fill="#87A358"/>
</g>
<defs>
<clipPath id="clip0_8_424">
<rect width="32" height="32" fill="white"/>
</clipPath>
</defs>
</svg>
