<svg width="64" height="64" viewBox="0 0 64 64" fill="none" xmlns="http://www.w3.org/2000/svg">
<path d="M25 21.5L21 15.5L17 21.5L22 25L25 21.5ZM47 21.5L43 15.5L39 21.5L42 25.5L47 21.5Z" fill="#FBBC05"/>
<path d="M40 20.0001L39 21.5001L42 25.5001L47 21.5001L45.7815 19.6726C45.7815 19.6726 43.2485 22.6641 42 22.5001C41.1065 22.3826 40 20.0001 40 20.0001ZM24 20.0001L25 21.5001L22 25.5001L17 21.5001L18.2185 19.6726C18.2185 19.6726 20.7515 22.6641 22 22.5001C22.8935 22.3826 24 20.0001 24 20.0001Z" fill="#F4950C"/>
<path d="M16 33H48L54.5 13.5L42 24.5L32 9.5L22 24.5L9.5 13.5L16 33ZM16 33H48C48.5304 33 49.0391 33.2107 49.4142 33.5858C49.7893 33.9609 50 34.4696 50 35C50 35.5304 49.7893 36.0391 49.4142 36.4142C49.0391 36.7893 48.5304 37 48 37H16C15.4696 37 14.9609 36.7893 14.5858 36.4142C14.2107 36.0391 14 35.5304 14 35C14 34.4696 14.2107 33.9609 14.5858 33.5858C14.9609 33.2107 15.4696 33 16 33Z" fill="#FFE161"/>
<path d="M48 33L54.5 13.5L42 24.5L32 9.5L30.675 11.4875C31.0383 11.8159 31.5102 11.9985 32 12C32 12 38.5 23 40.5 26C42.5 29 43.53 30 42.515 33H38.5L44.345 33.3065C44.6831 33.3624 44.9885 33.5418 45.2018 33.8101C45.4151 34.0783 45.5213 34.4161 45.4997 34.7582C45.4781 35.1002 45.3302 35.422 45.0848 35.6613C44.8395 35.9005 44.514 36.0401 44.1715 36.053L20.5 37H47.887C48.4388 37.0079 48.9711 36.7963 49.3668 36.4118C49.7626 36.0272 49.9895 35.5013 49.9975 34.9495V34.904C49.9737 34.3905 49.7527 33.906 49.3807 33.5513C49.0086 33.1967 48.514 32.9992 48 33Z" fill="#FBBC05"/>
<path d="M9.5 15.5C10.6046 15.5 11.5 14.6046 11.5 13.5C11.5 12.3954 10.6046 11.5 9.5 11.5C8.39543 11.5 7.5 12.3954 7.5 13.5C7.5 14.6046 8.39543 15.5 9.5 15.5Z" fill="#120D01"/>
<path d="M54.5 15.5C55.6046 15.5 56.5 14.6046 56.5 13.5C56.5 12.3954 55.6046 11.5 54.5 11.5C53.3954 11.5 52.5 12.3954 52.5 13.5C52.5 14.6046 53.3954 15.5 54.5 15.5Z" fill="#120D01"/>
<path d="M32 11.5C33.1046 11.5 34 10.6046 34 9.5C34 8.39543 33.1046 7.5 32 7.5C30.8954 7.5 30 8.39543 30 9.5C30 10.6046 30.8954 11.5 32 11.5Z" fill="#120D01"/>
<path d="M21 17C21.8284 17 22.5 16.3284 22.5 15.5C22.5 14.6716 21.8284 14 21 14C20.1716 14 19.5 14.6716 19.5 15.5C19.5 16.3284 20.1716 17 21 17Z" fill="black"/>
<path d="M43 17C43.8284 17 44.5 16.3284 44.5 15.5C44.5 14.6716 43.8284 14 43 14C42.1716 14 41.5 14.6716 41.5 15.5C41.5 16.3284 42.1716 17 43 17Z" fill="black"/>
<path d="M30.9665 40H32.9665C33.2317 40 33.486 40.1054 33.6736 40.2929C33.8611 40.4804 33.9665 40.7348 33.9665 41V55.5C33.9665 55.7652 33.8611 56.0196 33.6736 56.2071C33.486 56.3946 33.2317 56.5 32.9665 56.5H30.9665C30.7013 56.5 30.4469 56.3946 30.2594 56.2071C30.0718 56.0196 29.9665 55.7652 29.9665 55.5V41C29.9665 40.7348 30.0718 40.4804 30.2594 40.2929C30.4469 40.1054 30.7013 40 30.9665 40ZM26.566 41.2555L22.73 55.7555C22.6736 55.9688 22.5482 56.1576 22.3734 56.2922C22.1986 56.4269 21.9841 56.4999 21.7635 56.5H19.303C19.0823 56.5 18.8678 56.427 18.693 56.2923C18.5181 56.1576 18.3928 55.9689 18.3365 55.7555L14.5005 41.2555C14.4614 41.1075 14.4568 40.9525 14.487 40.8025C14.5172 40.6524 14.5815 40.5113 14.6749 40.39C14.7683 40.2687 14.8882 40.1705 15.0256 40.1029C15.1629 40.0352 15.3139 40 15.467 40H17.493C17.7221 40.0001 17.9443 40.0788 18.1223 40.2231C18.3003 40.3673 18.4234 40.5683 18.471 40.7925L20.5335 50.5L22.595 40.7925C22.6425 40.5683 22.7656 40.3673 22.9436 40.2231C23.1217 40.0788 23.3438 40.0001 23.573 40H25.599C25.7521 40 25.9032 40.0351 26.0406 40.1027C26.1779 40.1703 26.298 40.2685 26.3914 40.3898C26.4848 40.5111 26.5492 40.6522 26.5794 40.8023C26.6097 40.9524 26.6051 41.1075 26.566 41.2555ZM36.9665 41V55.5C36.9665 55.7652 37.0718 56.0196 37.2594 56.2071C37.4469 56.3946 37.7013 56.5 37.9665 56.5H39.9665C40.2317 56.5 40.486 56.3946 40.6736 56.2071C40.8611 56.0196 40.9665 55.7652 40.9665 55.5V52H43.533C46.8465 52 49.533 49.3135 49.533 46C49.533 42.6865 46.8465 40 43.533 40H37.9665C37.7013 40 37.4469 40.1054 37.2594 40.2929C37.0718 40.4804 36.9665 40.7348 36.9665 41ZM43.4665 48H40.9665V44H43.4665C43.9969 44 44.5056 44.2107 44.8807 44.5858C45.2558 44.9609 45.4665 45.4696 45.4665 46C45.4665 46.5304 45.2558 47.0391 44.8807 47.4142C44.5056 47.7893 43.9969 48 43.4665 48Z" fill="#120D01"/>
<path d="M33.4001 44.5C33.4001 47 33.9001 54.5 31.4001 55C31.1456 55.0374 30.886 55.02 30.6387 54.9488C30.3915 54.8777 30.1623 54.7545 29.9666 54.5875V55.5C29.9666 55.7652 30.0719 56.0196 30.2595 56.2071C30.447 56.3946 30.7014 56.5 30.9666 56.5H32.9666C33.2318 56.5 33.4862 56.3946 33.6737 56.2071C33.8612 56.0196 33.9666 55.7652 33.9666 55.5V41C33.9666 40.7348 33.8612 40.4804 33.6737 40.2929C33.4862 40.1054 33.2318 40 32.9666 40H32.4001C33.4001 40 33.4001 42 33.4001 44.5ZM24.9666 43.5C24.4666 46 22.4666 54.5 20.4666 55C20.0513 55.1193 19.6139 55.1407 19.1889 55.0626C18.7639 54.9844 18.3628 54.8088 18.0171 54.5495L18.3361 55.7555C18.3926 55.9689 18.518 56.1576 18.6929 56.2923C18.8678 56.4269 19.0824 56.5 19.3031 56.5H21.7636C22.2176 56.5 22.6141 56.1945 22.7301 55.7555L26.5661 41.2555C26.6052 41.1075 26.6098 40.9525 26.5796 40.8025C26.5493 40.6524 26.4851 40.5113 26.3917 40.39C26.2983 40.2687 26.1783 40.1705 26.041 40.1029C25.9037 40.0352 25.7527 40 25.5996 40H24.4671C25.4666 40 25.4666 41 24.9666 43.5ZM43.4666 51H41.0776C40.9154 51.0007 40.7601 51.0653 40.6454 51.1799C40.5307 51.2946 40.4659 51.4498 40.4651 51.612C40.4516 53.6685 40.4666 55 38.4001 55C37.891 55.0146 37.39 54.8704 36.9666 54.5875V55.5C36.9666 55.7652 37.0719 56.0196 37.2595 56.2071C37.447 56.3946 37.7014 56.5 37.9666 56.5H39.9666C40.2318 56.5 40.4862 56.3946 40.6737 56.2071C40.8612 56.0196 40.9666 55.7652 40.9666 55.5V52H43.5331C45.0436 51.9994 46.4982 51.4289 47.6063 50.4024C48.7143 49.3759 49.3942 47.969 49.5101 46.463C48.2426 49.668 45.4666 51 43.4666 51Z" fill="black"/>
<path d="M15.6665 32L16 33H48L48.3335 32H15.6665Z" fill="#FBBC05"/>
</svg>
